# xmcd
#
# Track frame offsets:
#	150
#	18909
#	40655
#	57858
#	77496
#	97020
#	116295
#	134040
#	152878
#	172249
#	186533
#	205576
#	221451
#	240852
#	258454
#	270090
#	291264
#
# Disc length: 4116 seconds
#
# Revision: 1
# Processed by: cddbd v1.5.1PL0 Copyright (c) Steve Scherf et al.
# Submitted via: audiograbber 1.83.01
#
DISCID=ea101211
DTITLE=mixed CD - CKC021
DYEAR=1900
DGENRE=Karaoke
TTITLE0=Rebecca Lynn Howard - Forgive
TTITLE1=Sara Evans - I keep lookings
TTITLE2=Sara Evans - Saints and angels
TTITLE3=Sara Evans - Back seat of a greyhound bus
TTITLE4=Sara Evans - Perfect
TTITLE5=Kellie Coffey - When you lie next to me
TTITLE6=Carolyn Dawn Johnson - Complicated
TTITLE7=Carolyn Dawn Johnson - I don't want you to go
TTITLE8=Jamie O'neal - There is no arizona
TTITLE9=Jamie O'neal - Frantic
TTITLE10=Jamie O'neal - Shiver
TTITLE11=Deana Carter - There's no limit
TTITLE12=Jennifer Hanson - Beautiful goodbye
TTITLE13=Jennifer Hanson - This far gone
TTITLE14=Dixie Chicks - White trash weddings
TTITLE15=Sherrie Austin - Streets of heaven
TTITLE16=Jessica Andrews - There's more to me than you
EXTD=
EXTT0=
EXTT1=
EXTT2=
EXTT3=
EXTT4=
EXTT5=
EXTT6=
EXTT7=
EXTT8=
EXTT9=
EXTT10=
EXTT11=
EXTT12=
EXTT13=
EXTT14=
EXTT15=
EXTT16=
PLAYORDER=
